<mxfile host="65bd71144e">
    <diagram id="DbVEzCz2rfcl0NkOdKjQ" name="更新和事件触发的流程">
        <mxGraphModel dx="577" dy="996" grid="1" gridSize="10" guides="1" tooltips="1" connect="1" arrows="1" fold="1" page="0" pageScale="1" pageWidth="827" pageHeight="1169" background="#ffffff" math="0" shadow="0">
            <root>
                <mxCell id="0"/>
                <mxCell id="1" parent="0"/>
                <mxCell id="4" value="" style="edgeStyle=none;html=1;fontSize=12;" parent="1" source="2" edge="1">
                    <mxGeometry relative="1" as="geometry">
                        <mxPoint x="335" y="30" as="targetPoint"/>
                    </mxGeometry>
                </mxCell>
                <mxCell id="2" value="&lt;b&gt;&lt;font style=&quot;font-size: 12px;&quot;&gt;p 元素点击事件处理函数执行&lt;/font&gt;&lt;/b&gt;" style="shape=parallelogram;perimeter=parallelogramPerimeter;whiteSpace=wrap;html=1;fixedSize=1;fillColor=#ffe6cc;strokeColor=#d79b00;" parent="1" vertex="1">
                    <mxGeometry x="190" y="-40" width="290" height="30" as="geometry"/>
                </mxCell>
                <mxCell id="8" value="" style="edgeStyle=none;html=1;fontSize=12;" parent="1" source="3" target="7" edge="1">
                    <mxGeometry relative="1" as="geometry"/>
                </mxCell>
                <mxCell id="3" value="&lt;b&gt;&lt;font style=&quot;font-size: 12px;&quot;&gt;副作用函数重新执行&lt;/font&gt;&lt;/b&gt;" style="shape=parallelogram;perimeter=parallelogramPerimeter;whiteSpace=wrap;html=1;fixedSize=1;fillColor=#ffe6cc;strokeColor=#d79b00;" parent="1" vertex="1">
                    <mxGeometry x="190" y="30" width="290" height="30" as="geometry"/>
                </mxCell>
                <mxCell id="6" value="" style="edgeStyle=none;html=1;fontSize=12;" parent="1" source="5" target="2" edge="1">
                    <mxGeometry relative="1" as="geometry"/>
                </mxCell>
                <mxCell id="5" value="&lt;b&gt;点击 p 元素&lt;/b&gt;" style="rounded=1;whiteSpace=wrap;html=1;fontSize=12;fillColor=#dae8fc;strokeColor=#6c8ebf;" parent="1" vertex="1">
                    <mxGeometry x="275" y="-110" width="120" height="30" as="geometry"/>
                </mxCell>
                <mxCell id="10" value="" style="edgeStyle=none;html=1;fontSize=12;" parent="1" source="7" target="9" edge="1">
                    <mxGeometry relative="1" as="geometry"/>
                </mxCell>
                <mxCell id="7" value="&lt;b&gt;渲染器&lt;/b&gt;" style="ellipse;whiteSpace=wrap;html=1;aspect=fixed;fontSize=12;fillColor=#e1d5e7;strokeColor=#9673a6;" parent="1" vertex="1">
                    <mxGeometry x="295" y="100" width="80" height="80" as="geometry"/>
                </mxCell>
                <mxCell id="12" value="" style="edgeStyle=none;html=1;fontSize=12;" parent="1" source="9" target="11" edge="1">
                    <mxGeometry relative="1" as="geometry"/>
                </mxCell>
                <mxCell id="9" value="&lt;b&gt;为 div 元素绑定事件&lt;/b&gt;" style="rounded=1;whiteSpace=wrap;html=1;fontSize=12;fillColor=#dae8fc;strokeColor=#6c8ebf;" parent="1" vertex="1">
                    <mxGeometry x="262.5" y="220" width="145" height="30" as="geometry"/>
                </mxCell>
                <mxCell id="11" value="&lt;b&gt;&lt;font style=&quot;font-size: 12px;&quot;&gt;div 元素事件处理函数执行&lt;/font&gt;&lt;/b&gt;" style="shape=parallelogram;perimeter=parallelogramPerimeter;whiteSpace=wrap;html=1;fixedSize=1;fillColor=#ffe6cc;strokeColor=#d79b00;" parent="1" vertex="1">
                    <mxGeometry x="190" y="290" width="290" height="30" as="geometry"/>
                </mxCell>
                <mxCell id="13" value="&lt;b&gt;&lt;font color=&quot;#00994d&quot;&gt;事件冒泡到 div 元素&lt;/font&gt;&lt;/b&gt;" style="text;html=1;strokeColor=none;fillColor=none;align=center;verticalAlign=middle;whiteSpace=wrap;rounded=0;fontSize=12;" parent="1" vertex="1">
                    <mxGeometry x="320" y="254" width="152" height="30" as="geometry"/>
                </mxCell>
            </root>
        </mxGraphModel>
    </diagram>
    <diagram id="CVPhH8eOXLSh2TqqwTJZ" name="新旧子节点的关系">
        <mxGraphModel dx="889" dy="996" grid="0" gridSize="10" guides="1" tooltips="1" connect="1" arrows="1" fold="1" page="0" pageScale="1" pageWidth="827" pageHeight="1169" math="0" shadow="0">
            <root>
                <mxCell id="0"/>
                <mxCell id="1" parent="0"/>
                <mxCell id="5oifa1H9YOr10HyN-N-7-1" value="&lt;b&gt;&lt;font style=&quot;font-size: 14px;&quot;&gt;新子节点&lt;/font&gt;&lt;/b&gt;" style="text;html=1;strokeColor=none;fillColor=none;align=center;verticalAlign=middle;whiteSpace=wrap;rounded=0;" vertex="1" parent="1">
                    <mxGeometry x="190" y="-300" width="60" height="30" as="geometry"/>
                </mxCell>
                <mxCell id="5oifa1H9YOr10HyN-N-7-2" value="&lt;b&gt;&lt;font style=&quot;font-size: 14px;&quot;&gt;旧子节点&lt;/font&gt;&lt;/b&gt;" style="text;html=1;strokeColor=none;fillColor=none;align=center;verticalAlign=middle;whiteSpace=wrap;rounded=0;" vertex="1" parent="1">
                    <mxGeometry x="430" y="-300" width="60" height="30" as="geometry"/>
                </mxCell>
                <mxCell id="5oifa1H9YOr10HyN-N-7-3" value="&lt;b&gt;&lt;font style=&quot;font-size: 12px;&quot;&gt;没有子节点&lt;/font&gt;&lt;/b&gt;" style="rounded=0;whiteSpace=wrap;html=1;fontSize=14;fillColor=#f5f5f5;strokeColor=#666666;fontColor=#333333;" vertex="1" parent="1">
                    <mxGeometry x="160" y="-210" width="120" height="30" as="geometry"/>
                </mxCell>
                <mxCell id="5oifa1H9YOr10HyN-N-7-4" value="&lt;b&gt;&lt;font style=&quot;font-size: 12px;&quot;&gt;文本子节点&lt;/font&gt;&lt;/b&gt;" style="rounded=0;whiteSpace=wrap;html=1;fontSize=14;fillColor=#e1d5e7;strokeColor=#9673a6;" vertex="1" parent="1">
                    <mxGeometry x="160" y="-60" width="120" height="30" as="geometry"/>
                </mxCell>
                <mxCell id="5oifa1H9YOr10HyN-N-7-5" value="&lt;span style=&quot;font-size: 12px;&quot;&gt;&lt;b&gt;数组子节点&lt;/b&gt;&lt;/span&gt;" style="rounded=0;whiteSpace=wrap;html=1;fontSize=14;fillColor=#d5e8d4;strokeColor=#82b366;" vertex="1" parent="1">
                    <mxGeometry x="160" y="90" width="120" height="30" as="geometry"/>
                </mxCell>
                <mxCell id="5oifa1H9YOr10HyN-N-7-6" value="&lt;b&gt;&lt;font style=&quot;font-size: 12px;&quot;&gt;没有子节点&lt;/font&gt;&lt;/b&gt;" style="rounded=0;whiteSpace=wrap;html=1;fontSize=14;fillColor=#f5f5f5;strokeColor=#666666;fontColor=#333333;" vertex="1" parent="1">
                    <mxGeometry x="400" y="-260" width="120" height="30" as="geometry"/>
                </mxCell>
                <mxCell id="5oifa1H9YOr10HyN-N-7-8" value="&lt;b&gt;&lt;font style=&quot;font-size: 12px;&quot;&gt;文本子节点&lt;/font&gt;&lt;/b&gt;" style="rounded=0;whiteSpace=wrap;html=1;fontSize=14;fillColor=#e1d5e7;strokeColor=#9673a6;" vertex="1" parent="1">
                    <mxGeometry x="400" y="-210" width="120" height="30" as="geometry"/>
                </mxCell>
                <mxCell id="5oifa1H9YOr10HyN-N-7-9" value="&lt;span style=&quot;font-size: 12px;&quot;&gt;&lt;b&gt;数组子节点&lt;/b&gt;&lt;/span&gt;" style="rounded=0;whiteSpace=wrap;html=1;fontSize=14;fillColor=#d5e8d4;strokeColor=#82b366;" vertex="1" parent="1">
                    <mxGeometry x="400" y="-160" width="120" height="30" as="geometry"/>
                </mxCell>
                <mxCell id="5oifa1H9YOr10HyN-N-7-10" value="" style="endArrow=classic;html=1;fontSize=12;entryX=0;entryY=0.5;entryDx=0;entryDy=0;exitX=1;exitY=0.25;exitDx=0;exitDy=0;" edge="1" parent="1" source="5oifa1H9YOr10HyN-N-7-3" target="5oifa1H9YOr10HyN-N-7-6">
                    <mxGeometry width="50" height="50" relative="1" as="geometry">
                        <mxPoint x="280" y="-200" as="sourcePoint"/>
                        <mxPoint x="330" y="-250" as="targetPoint"/>
                    </mxGeometry>
                </mxCell>
                <mxCell id="5oifa1H9YOr10HyN-N-7-11" value="" style="endArrow=classic;html=1;fontSize=12;entryX=0;entryY=0.5;entryDx=0;entryDy=0;exitX=1;exitY=0.5;exitDx=0;exitDy=0;" edge="1" parent="1" source="5oifa1H9YOr10HyN-N-7-3" target="5oifa1H9YOr10HyN-N-7-8">
                    <mxGeometry width="50" height="50" relative="1" as="geometry">
                        <mxPoint x="290" y="-190" as="sourcePoint"/>
                        <mxPoint x="410" y="-235" as="targetPoint"/>
                    </mxGeometry>
                </mxCell>
                <mxCell id="5oifa1H9YOr10HyN-N-7-12" value="" style="endArrow=classic;html=1;fontSize=12;entryX=0;entryY=0.5;entryDx=0;entryDy=0;exitX=1;exitY=0.75;exitDx=0;exitDy=0;" edge="1" parent="1" source="5oifa1H9YOr10HyN-N-7-3" target="5oifa1H9YOr10HyN-N-7-9">
                    <mxGeometry width="50" height="50" relative="1" as="geometry">
                        <mxPoint x="290" y="-192.5" as="sourcePoint"/>
                        <mxPoint x="410" y="-235" as="targetPoint"/>
                    </mxGeometry>
                </mxCell>
                <mxCell id="5oifa1H9YOr10HyN-N-7-13" value="&lt;b&gt;&lt;font style=&quot;font-size: 12px;&quot;&gt;没有子节点&lt;/font&gt;&lt;/b&gt;" style="rounded=0;whiteSpace=wrap;html=1;fontSize=14;fillColor=#f5f5f5;strokeColor=#666666;fontColor=#333333;" vertex="1" parent="1">
                    <mxGeometry x="400" y="-110" width="120" height="30" as="geometry"/>
                </mxCell>
                <mxCell id="5oifa1H9YOr10HyN-N-7-14" value="&lt;b&gt;&lt;font style=&quot;font-size: 12px;&quot;&gt;文本子节点&lt;/font&gt;&lt;/b&gt;" style="rounded=0;whiteSpace=wrap;html=1;fontSize=14;fillColor=#e1d5e7;strokeColor=#9673a6;" vertex="1" parent="1">
                    <mxGeometry x="400" y="-60" width="120" height="30" as="geometry"/>
                </mxCell>
                <mxCell id="5oifa1H9YOr10HyN-N-7-15" value="&lt;span style=&quot;font-size: 12px;&quot;&gt;&lt;b&gt;数组子节点&lt;/b&gt;&lt;/span&gt;" style="rounded=0;whiteSpace=wrap;html=1;fontSize=14;fillColor=#d5e8d4;strokeColor=#82b366;" vertex="1" parent="1">
                    <mxGeometry x="400" y="-10" width="120" height="30" as="geometry"/>
                </mxCell>
                <mxCell id="5oifa1H9YOr10HyN-N-7-16" value="&lt;b&gt;&lt;font style=&quot;font-size: 12px;&quot;&gt;没有子节点&lt;/font&gt;&lt;/b&gt;" style="rounded=0;whiteSpace=wrap;html=1;fontSize=14;fillColor=#f5f5f5;strokeColor=#666666;fontColor=#333333;" vertex="1" parent="1">
                    <mxGeometry x="400" y="40" width="120" height="30" as="geometry"/>
                </mxCell>
                <mxCell id="5oifa1H9YOr10HyN-N-7-17" value="&lt;b&gt;&lt;font style=&quot;font-size: 12px;&quot;&gt;文本子节点&lt;/font&gt;&lt;/b&gt;" style="rounded=0;whiteSpace=wrap;html=1;fontSize=14;fillColor=#e1d5e7;strokeColor=#9673a6;" vertex="1" parent="1">
                    <mxGeometry x="400" y="90" width="120" height="30" as="geometry"/>
                </mxCell>
                <mxCell id="5oifa1H9YOr10HyN-N-7-18" value="&lt;span style=&quot;font-size: 12px;&quot;&gt;&lt;b&gt;数组子节点&lt;/b&gt;&lt;/span&gt;" style="rounded=0;whiteSpace=wrap;html=1;fontSize=14;fillColor=#d5e8d4;strokeColor=#82b366;" vertex="1" parent="1">
                    <mxGeometry x="400" y="140" width="120" height="30" as="geometry"/>
                </mxCell>
                <mxCell id="5oifa1H9YOr10HyN-N-7-19" value="" style="endArrow=classic;html=1;fontSize=12;entryX=0;entryY=0.5;entryDx=0;entryDy=0;exitX=1;exitY=0.25;exitDx=0;exitDy=0;" edge="1" parent="1">
                    <mxGeometry width="50" height="50" relative="1" as="geometry">
                        <mxPoint x="280" y="-52.5" as="sourcePoint"/>
                        <mxPoint x="400" y="-95" as="targetPoint"/>
                    </mxGeometry>
                </mxCell>
                <mxCell id="5oifa1H9YOr10HyN-N-7-20" value="" style="endArrow=classic;html=1;fontSize=12;entryX=0;entryY=0.5;entryDx=0;entryDy=0;exitX=1;exitY=0.5;exitDx=0;exitDy=0;" edge="1" parent="1">
                    <mxGeometry width="50" height="50" relative="1" as="geometry">
                        <mxPoint x="280" y="-45" as="sourcePoint"/>
                        <mxPoint x="400" y="-45" as="targetPoint"/>
                    </mxGeometry>
                </mxCell>
                <mxCell id="5oifa1H9YOr10HyN-N-7-21" value="" style="endArrow=classic;html=1;fontSize=12;entryX=0;entryY=0.5;entryDx=0;entryDy=0;exitX=1;exitY=0.75;exitDx=0;exitDy=0;" edge="1" parent="1">
                    <mxGeometry width="50" height="50" relative="1" as="geometry">
                        <mxPoint x="280" y="-37.5" as="sourcePoint"/>
                        <mxPoint x="400" y="5" as="targetPoint"/>
                    </mxGeometry>
                </mxCell>
                <mxCell id="5oifa1H9YOr10HyN-N-7-22" value="" style="endArrow=classic;html=1;fontSize=12;entryX=0;entryY=0.5;entryDx=0;entryDy=0;exitX=1;exitY=0.25;exitDx=0;exitDy=0;" edge="1" parent="1">
                    <mxGeometry width="50" height="50" relative="1" as="geometry">
                        <mxPoint x="280" y="97.5" as="sourcePoint"/>
                        <mxPoint x="400" y="55" as="targetPoint"/>
                    </mxGeometry>
                </mxCell>
                <mxCell id="5oifa1H9YOr10HyN-N-7-23" value="" style="endArrow=classic;html=1;fontSize=12;entryX=0;entryY=0.5;entryDx=0;entryDy=0;exitX=1;exitY=0.5;exitDx=0;exitDy=0;" edge="1" parent="1">
                    <mxGeometry width="50" height="50" relative="1" as="geometry">
                        <mxPoint x="280" y="105" as="sourcePoint"/>
                        <mxPoint x="400" y="105" as="targetPoint"/>
                    </mxGeometry>
                </mxCell>
                <mxCell id="5oifa1H9YOr10HyN-N-7-24" value="" style="endArrow=classic;html=1;fontSize=12;entryX=0;entryY=0.5;entryDx=0;entryDy=0;exitX=1;exitY=0.75;exitDx=0;exitDy=0;" edge="1" parent="1">
                    <mxGeometry width="50" height="50" relative="1" as="geometry">
                        <mxPoint x="280" y="112.5" as="sourcePoint"/>
                        <mxPoint x="400" y="155" as="targetPoint"/>
                    </mxGeometry>
                </mxCell>
            </root>
        </mxGraphModel>
    </diagram>
</mxfile>